<svg width="1024" height="1256" viewBox="0 0 1024 1256" fill="none" xmlns="http://www.w3.org/2000/svg">
<path d="M-795.126 1157.95C-799.071 1134.68 -785.65 792.905 -661.31 509.925C-549.696 256.267 -290.144 111.698 13.6335 294.011C339.119 489.405 619.873 509.053 846.254 452.056C1069.67 395.546 1218.25 225.275 1284.97 116.7C1429.79 -117.932 1643.72 27.1997 1568.58 335.908C1533.12 479.511 1439.65 519.66 1277.68 534.561C1108.38 550.136 858.247 517.075 511.308 584.45C176.717 649.682 -199.809 806.346 -411.534 1005.76C-636.861 1218.16 -762.092 1361 -795.126 1157.95Z" fill="url(#paint0_linear_1156_1508)"/>
<defs>
<linearGradient id="paint0_linear_1156_1508" x1="1460.47" y1="973.321" x2="-743.86" y2="290.041" gradientUnits="userSpaceOnUse">
<stop stop-color="#5D50C6"/>
<stop offset="1" stop-color="#F85E9F"/>
</linearGradient>
</defs>
</svg>
